<svg xmlns="http://www.w3.org/2000/svg" width="160" height="66" viewBox="0 0 42.334 17.462" xmlns:v="https://vecta.io/nano"><path d="M31.955 5.151h1.481v7.952h-1.481z" fill="#78a0c2"/><path d="M.427 13.103v-4.79c0-.869.307-1.61.92-2.232a3.04 3.04 0 0 1 2.243-.931c.941-.023 1.838.396 2.424 1.132.635-.756 1.446-1.132 2.433-1.132.866 0 1.61.31 2.232.931a3.04 3.04 0 0 1 .931 2.232v4.79h-1.481v-4.79c.007-.448-.172-.879-.494-1.19-.311-.323-.742-.502-1.19-.494-.464 0-.864.164-1.199.494-.323.311-.502.742-.494 1.19v4.79H5.27v-4.79c.007-.448-.172-.879-.494-1.19-.311-.323-.742-.502-1.19-.494-.448-.007-.879.172-1.19.494-.323.311-.502.742-.494 1.19v4.79z" fill="#327eb9"/><path d="M16.887 11.622c.689 0 1.278-.243 1.772-.728.475-.462.738-1.098.728-1.761 0-.689-.243-1.278-.728-1.772s-1.084-.728-1.772-.728c-.662-.01-1.299.253-1.761.728-.485.494-.728 1.084-.728 1.772-.01.662.253 1.299.728 1.761.462.475 1.098.738 1.761.728m3.981 1.469h-1.481v-.896c-.739.605-1.573.908-2.5.908a3.82 3.82 0 0 1-2.805-1.167 3.82 3.82 0 0 1-1.167-2.805c-.016-1.059.406-2.077 1.167-2.814a3.81 3.81 0 0 1 2.805-1.167c1.06-.017 2.079.405 2.816 1.167.761.737 1.183 1.755 1.167 2.814zm13.895.012v-1.481h4.79a.83.83 0 0 0 .617-.259.85.85 0 0 0 .259-.617c.004-.235-.09-.462-.259-.626s-.379-.247-.617-.247l-2.715-.012c-.624.01-1.224-.237-1.659-.684-.464-.464-.695-1.021-.695-1.67a2.24 2.24 0 0 1 .695-1.659 2.24 2.24 0 0 1 1.659-.695h4.138v1.481h-4.138c-.24 0-.444.085-.617.259s-.259.377-.259.617.089.464.259.628c.173.173.377.259.617.259h2.715c.652 0 1.208.229 1.67.684a2.26 2.26 0 0 1 .684 1.67 2.31 2.31 0 0 1-.684 1.673c-.455.464-1.021.684-1.67.684z" fill="#78a0c2"/><path d="M31.962 1.812l-.014-.021c-.079-.12-.09-.273-.032-.404l.342-.746a.19.19 0 0 0-.171-.268h-1.4c-.074 0-.141.042-.171.111l-.46.993c-.058.125.032.268.171.268h1.137c.141 0 .273.072.349.189a.43.43 0 0 1 .03.407l-.647 1.393c-.058.125.032.268.171.268h2.243c.074 0 .141-.042.171-.111l.744-1.624a.19.19 0 0 0-.171-.268h-1.945c-.141 0-.273-.072-.351-.189" fill="#8bcfdc"/><path d="M28.067 10.906c-.485.488-1.077.73-1.772.73a2.38 2.38 0 0 1-1.761-.73c-.485-.488-.73-1.072-.73-1.761s.243-1.28.73-1.772c.462-.475 1.098-.738 1.761-.728a2.41 2.41 0 0 1 1.772.728c.485.485.728 1.084.728 1.772s-.243 1.275-.728 1.761m1.044-4.577c-.737-.761-1.757-1.184-2.816-1.167-1.091 0-2.026.388-2.805 1.167-.761.737-1.184 1.757-1.167 2.816a3.82 3.82 0 0 0 1.167 2.805 3.82 3.82 0 0 0 2.805 1.167c.926 0 1.761-.303 2.5-.908v.908c0 .689-.243 1.275-.728 1.761h-.023c-.485.488-1.077.73-1.772.73a2.38 2.38 0 0 1-1.761-.73l-1.042 1.044a3.82 3.82 0 0 0 2.805 1.167h.025l.28-.012c.961-.053 1.866-.466 2.537-1.155a3.8 3.8 0 0 0 1.167-2.805V9.143c.017-1.06-.405-2.079-1.167-2.816" fill="#78a0c2"/></svg>